<svg  viewBox="0 0 1740 1786" fill="none" xmlns="http://www.w3.org/2000/svg">
<ellipse cx="331.41" cy="1781.64" rx="3.49375" ry="3.51812" transform="rotate(-180 331.41 1781.64)" fill="#131626"/>
<ellipse cx="280.169" cy="1781.64" rx="3.49375" ry="3.51812" transform="rotate(-180 280.169 1781.64)" fill="#131626"/>
<ellipse cx="228.927" cy="1781.64" rx="3.49375" ry="3.51812" transform="rotate(-180 228.927 1781.64)" fill="#131626"/>
<ellipse cx="177.685" cy="1781.64" rx="3.49375" ry="3.51812" transform="rotate(-180 177.685 1781.64)" fill="#131626"/>
<ellipse cx="126.444" cy="1781.64" rx="3.49375" ry="3.51812" transform="rotate(-180 126.444 1781.64)" fill="#131626"/>
<ellipse cx="331.41" cy="1730.04" rx="3.49375" ry="3.51812" transform="rotate(-180 331.41 1730.04)" fill="#131626"/>
<ellipse cx="280.169" cy="1730.04" rx="3.49375" ry="3.51812" transform="rotate(-180 280.169 1730.04)" fill="#131626"/>
<ellipse cx="228.927" cy="1730.04" rx="3.49375" ry="3.51812" transform="rotate(-180 228.927 1730.04)" fill="#131626"/>
<ellipse cx="177.685" cy="1730.04" rx="3.49375" ry="3.51812" transform="rotate(-180 177.685 1730.04)" fill="#131626"/>
<ellipse cx="126.444" cy="1730.04" rx="3.49375" ry="3.51812" transform="rotate(-180 126.444 1730.04)" fill="#131626"/>
<ellipse cx="331.41" cy="1678.44" rx="3.49375" ry="3.51812" transform="rotate(-180 331.41 1678.44)" fill="#131626"/>
<ellipse cx="280.169" cy="1678.44" rx="3.49375" ry="3.51812" transform="rotate(-180 280.169 1678.44)" fill="#131626"/>
<ellipse cx="228.927" cy="1678.44" rx="3.49375" ry="3.51812" transform="rotate(-180 228.927 1678.44)" fill="#131626"/>
<ellipse cx="177.685" cy="1678.44" rx="3.49375" ry="3.51812" transform="rotate(-180 177.685 1678.44)" fill="#131626"/>
<ellipse cx="126.444" cy="1678.44" rx="3.49375" ry="3.51812" transform="rotate(-180 126.444 1678.44)" fill="#131626"/>
<ellipse cx="331.41" cy="1626.84" rx="3.49375" ry="3.51812" transform="rotate(-180 331.41 1626.84)" fill="#131626"/>
<ellipse cx="280.169" cy="1626.84" rx="3.49375" ry="3.51812" transform="rotate(-180 280.169 1626.84)" fill="#131626"/>
<ellipse cx="228.927" cy="1626.84" rx="3.49375" ry="3.51812" transform="rotate(-180 228.927 1626.84)" fill="#131626"/>
<ellipse cx="177.685" cy="1626.84" rx="3.49375" ry="3.51812" transform="rotate(-180 177.685 1626.84)" fill="#131626"/>
<ellipse cx="126.444" cy="1626.84" rx="3.49375" ry="3.51812" transform="rotate(-180 126.444 1626.84)" fill="#131626"/>
<ellipse cx="331.41" cy="1575.25" rx="3.49375" ry="3.51812" transform="rotate(-180 331.41 1575.25)" fill="#131626"/>
<ellipse cx="280.169" cy="1575.25" rx="3.49375" ry="3.51812" transform="rotate(-180 280.169 1575.25)" fill="#131626"/>
<ellipse cx="228.927" cy="1575.25" rx="3.49375" ry="3.51812" transform="rotate(-180 228.927 1575.25)" fill="#131626"/>
<ellipse cx="177.685" cy="1575.25" rx="3.49375" ry="3.51812" transform="rotate(-180 177.685 1575.25)" fill="#131626"/>
<ellipse cx="126.444" cy="1575.25" rx="3.49375" ry="3.51812" transform="rotate(-180 126.444 1575.25)" fill="#131626"/>
<ellipse cx="331.41" cy="1523.65" rx="3.49375" ry="3.51812" transform="rotate(-180 331.41 1523.65)" fill="#131626"/>
<ellipse cx="280.169" cy="1523.65" rx="3.49375" ry="3.51812" transform="rotate(-180 280.169 1523.65)" fill="#131626"/>
<ellipse cx="228.927" cy="1523.65" rx="3.49375" ry="3.51812" transform="rotate(-180 228.927 1523.65)" fill="#131626"/>
<ellipse cx="177.685" cy="1523.65" rx="3.49375" ry="3.51812" transform="rotate(-180 177.685 1523.65)" fill="#131626"/>
<ellipse cx="126.444" cy="1523.65" rx="3.49375" ry="3.51812" transform="rotate(-180 126.444 1523.65)" fill="#131626"/>
<ellipse cx="331.41" cy="1472.05" rx="3.49375" ry="3.51812" transform="rotate(-180 331.41 1472.05)" fill="#131626"/>
<ellipse cx="280.169" cy="1472.05" rx="3.49375" ry="3.51812" transform="rotate(-180 280.169 1472.05)" fill="#131626"/>
<ellipse cx="228.927" cy="1472.05" rx="3.49375" ry="3.51812" transform="rotate(-180 228.927 1472.05)" fill="#131626"/>
<ellipse cx="177.685" cy="1472.05" rx="3.49375" ry="3.51812" transform="rotate(-180 177.685 1472.05)" fill="#131626"/>
<ellipse cx="126.444" cy="1472.05" rx="3.49375" ry="3.51812" transform="rotate(-180 126.444 1472.05)" fill="#131626"/>
<ellipse cx="331.41" cy="1420.45" rx="3.49375" ry="3.51812" transform="rotate(-180 331.41 1420.45)" fill="#131626"/>
<ellipse cx="280.169" cy="1420.45" rx="3.49375" ry="3.51812" transform="rotate(-180 280.169 1420.45)" fill="#131626"/>
<ellipse cx="228.927" cy="1420.45" rx="3.49375" ry="3.51812" transform="rotate(-180 228.927 1420.45)" fill="#131626"/>
<ellipse cx="177.685" cy="1420.45" rx="3.49375" ry="3.51812" transform="rotate(-180 177.685 1420.45)" fill="#131626"/>
<ellipse cx="126.444" cy="1420.45" rx="3.49375" ry="3.51812" transform="rotate(-180 126.444 1420.45)" fill="#131626"/>
<ellipse cx="331.41" cy="1368.85" rx="3.49375" ry="3.51812" transform="rotate(-180 331.41 1368.85)" fill="#131626"/>
<ellipse cx="280.169" cy="1368.85" rx="3.49375" ry="3.51812" transform="rotate(-180 280.169 1368.85)" fill="#131626"/>
<ellipse cx="228.927" cy="1368.85" rx="3.49375" ry="3.51812" transform="rotate(-180 228.927 1368.85)" fill="#131626"/>
<ellipse cx="177.685" cy="1368.85" rx="3.49375" ry="3.51812" transform="rotate(-180 177.685 1368.85)" fill="#131626"/>
<ellipse cx="126.444" cy="1368.85" rx="3.49375" ry="3.51812" transform="rotate(-180 126.444 1368.85)" fill="#131626"/>
<ellipse cx="331.41" cy="1317.25" rx="3.49375" ry="3.51812" transform="rotate(-180 331.41 1317.25)" fill="#131626"/>
<ellipse cx="280.169" cy="1317.25" rx="3.49375" ry="3.51812" transform="rotate(-180 280.169 1317.25)" fill="#131626"/>
<ellipse cx="228.927" cy="1317.25" rx="3.49375" ry="3.51812" transform="rotate(-180 228.927 1317.25)" fill="#131626"/>
<ellipse cx="177.685" cy="1317.25" rx="3.49375" ry="3.51812" transform="rotate(-180 177.685 1317.25)" fill="#131626"/>
<ellipse cx="126.444" cy="1317.25" rx="3.49375" ry="3.51812" transform="rotate(-180 126.444 1317.25)" fill="#131626"/>
<ellipse cx="1126.29" cy="279.149" rx="4.64596" ry="4.61377" transform="rotate(-90 1126.29 279.149)" fill="#131626"/>
<ellipse cx="1126.29" cy="210.523" rx="4.64596" ry="4.61377" transform="rotate(-90 1126.29 210.523)" fill="#131626"/>
<ellipse cx="1126.29" cy="141.897" rx="4.64596" ry="4.61377" transform="rotate(-90 1126.29 141.897)" fill="#131626"/>
<ellipse cx="1126.29" cy="73.2715" rx="4.64596" ry="4.61377" transform="rotate(-90 1126.29 73.2715)" fill="#131626"/>
<ellipse cx="1126.29" cy="4.64554" rx="4.64596" ry="4.61377" transform="rotate(-90 1126.29 4.64554)" fill="#131626"/>
<ellipse cx="1193.96" cy="279.15" rx="4.64596" ry="4.61377" transform="rotate(-90 1193.96 279.15)" fill="#131626"/>
<ellipse cx="1193.96" cy="210.523" rx="4.64596" ry="4.61377" transform="rotate(-90 1193.96 210.523)" fill="#131626"/>
<ellipse cx="1193.96" cy="141.897" rx="4.64596" ry="4.61377" transform="rotate(-90 1193.96 141.897)" fill="#131626"/>
<ellipse cx="1193.96" cy="73.2715" rx="4.64596" ry="4.61377" transform="rotate(-90 1193.96 73.2715)" fill="#131626"/>
<ellipse cx="1193.96" cy="4.64554" rx="4.64596" ry="4.61377" transform="rotate(-90 1193.96 4.64554)" fill="#131626"/>
<ellipse cx="1261.62" cy="279.15" rx="4.64596" ry="4.61377" transform="rotate(-90 1261.62 279.15)" fill="#131626"/>
<ellipse cx="1261.62" cy="210.523" rx="4.64596" ry="4.61377" transform="rotate(-90 1261.62 210.523)" fill="#131626"/>
<ellipse cx="1261.62" cy="141.897" rx="4.64596" ry="4.61377" transform="rotate(-90 1261.62 141.897)" fill="#131626"/>
<ellipse cx="1261.62" cy="73.2715" rx="4.64596" ry="4.61377" transform="rotate(-90 1261.62 73.2715)" fill="#131626"/>
<ellipse cx="1261.62" cy="4.64554" rx="4.64596" ry="4.61377" transform="rotate(-90 1261.62 4.64554)" fill="#131626"/>
<ellipse cx="1329.29" cy="279.15" rx="4.64596" ry="4.61377" transform="rotate(-90 1329.29 279.15)" fill="#131626"/>
<ellipse cx="1329.29" cy="210.523" rx="4.64596" ry="4.61377" transform="rotate(-90 1329.29 210.523)" fill="#131626"/>
<ellipse cx="1329.29" cy="141.897" rx="4.64596" ry="4.61377" transform="rotate(-90 1329.29 141.897)" fill="#131626"/>
<ellipse cx="1329.29" cy="73.2715" rx="4.64596" ry="4.61377" transform="rotate(-90 1329.29 73.2715)" fill="#131626"/>
<ellipse cx="1329.29" cy="4.64554" rx="4.64596" ry="4.61377" transform="rotate(-90 1329.29 4.64554)" fill="#131626"/>
<ellipse cx="1396.96" cy="279.15" rx="4.64596" ry="4.61377" transform="rotate(-90 1396.96 279.15)" fill="#131626"/>
<ellipse cx="1396.96" cy="210.523" rx="4.64596" ry="4.61377" transform="rotate(-90 1396.96 210.523)" fill="#131626"/>
<ellipse cx="1396.96" cy="141.897" rx="4.64596" ry="4.61377" transform="rotate(-90 1396.96 141.897)" fill="#131626"/>
<ellipse cx="1396.96" cy="73.2715" rx="4.64596" ry="4.61377" transform="rotate(-90 1396.96 73.2715)" fill="#131626"/>
<ellipse cx="1396.96" cy="4.64554" rx="4.64596" ry="4.61377" transform="rotate(-90 1396.96 4.64554)" fill="#131626"/>
<ellipse cx="1464.63" cy="279.15" rx="4.64596" ry="4.61377" transform="rotate(-90 1464.63 279.15)" fill="#131626"/>
<ellipse cx="1464.63" cy="210.523" rx="4.64596" ry="4.61377" transform="rotate(-90 1464.63 210.523)" fill="#131626"/>
<ellipse cx="1464.63" cy="141.897" rx="4.64596" ry="4.61377" transform="rotate(-90 1464.63 141.897)" fill="#131626"/>
<ellipse cx="1464.63" cy="73.2715" rx="4.64596" ry="4.61377" transform="rotate(-90 1464.63 73.2715)" fill="#131626"/>
<ellipse cx="1464.63" cy="4.64554" rx="4.64596" ry="4.61377" transform="rotate(-90 1464.63 4.64554)" fill="#131626"/>
<ellipse cx="1532.3" cy="279.15" rx="4.64596" ry="4.61377" transform="rotate(-90 1532.3 279.15)" fill="#131626"/>
<ellipse cx="1532.3" cy="210.523" rx="4.64596" ry="4.61377" transform="rotate(-90 1532.3 210.523)" fill="#131626"/>
<ellipse cx="1532.3" cy="141.897" rx="4.64596" ry="4.61377" transform="rotate(-90 1532.3 141.897)" fill="#131626"/>
<ellipse cx="1532.3" cy="73.2715" rx="4.64596" ry="4.61377" transform="rotate(-90 1532.3 73.2715)" fill="#131626"/>
<ellipse cx="1532.3" cy="4.64554" rx="4.64596" ry="4.61377" transform="rotate(-90 1532.3 4.64554)" fill="#131626"/>
<ellipse cx="1599.97" cy="279.15" rx="4.64596" ry="4.61377" transform="rotate(-90 1599.97 279.15)" fill="#131626"/>
<ellipse cx="1599.97" cy="210.523" rx="4.64596" ry="4.61377" transform="rotate(-90 1599.97 210.523)" fill="#131626"/>
<ellipse cx="1599.97" cy="141.897" rx="4.64596" ry="4.61377" transform="rotate(-90 1599.97 141.897)" fill="#131626"/>
<ellipse cx="1599.97" cy="73.2715" rx="4.64596" ry="4.61377" transform="rotate(-90 1599.97 73.2715)" fill="#131626"/>
<ellipse cx="1599.97" cy="4.64554" rx="4.64596" ry="4.61377" transform="rotate(-90 1599.97 4.64554)" fill="#131626"/>
<ellipse cx="1667.64" cy="279.15" rx="4.64596" ry="4.61377" transform="rotate(-90 1667.64 279.15)" fill="#131626"/>
<ellipse cx="1667.64" cy="210.523" rx="4.64596" ry="4.61377" transform="rotate(-90 1667.64 210.523)" fill="#131626"/>
<ellipse cx="1667.64" cy="141.897" rx="4.64596" ry="4.61377" transform="rotate(-90 1667.64 141.897)" fill="#131626"/>
<ellipse cx="1667.64" cy="73.2715" rx="4.64596" ry="4.61377" transform="rotate(-90 1667.64 73.2715)" fill="#131626"/>
<ellipse cx="1667.64" cy="4.64554" rx="4.64596" ry="4.61377" transform="rotate(-90 1667.64 4.64554)" fill="#131626"/>
<ellipse cx="1735.31" cy="279.15" rx="4.64596" ry="4.61377" transform="rotate(-90 1735.31 279.15)" fill="#131626"/>
<ellipse cx="1735.31" cy="210.523" rx="4.64596" ry="4.61377" transform="rotate(-90 1735.31 210.523)" fill="#131626"/>
<ellipse cx="1735.31" cy="141.897" rx="4.64596" ry="4.61377" transform="rotate(-90 1735.31 141.897)" fill="#131626"/>
<ellipse cx="1735.31" cy="73.2715" rx="4.64596" ry="4.61377" transform="rotate(-90 1735.31 73.2715)" fill="#131626"/>
<ellipse cx="1735.31" cy="4.64554" rx="4.64596" ry="4.61377" transform="rotate(-90 1735.31 4.64554)" fill="#131626"/>
<path d="M243.4 151.534C243.4 218.547 189.456 272.842 122.95 272.842C56.4437 272.842 2.5 218.547 2.5 151.534C2.5 84.5215 56.4437 30.2266 122.95 30.2266C189.456 30.2266 243.4 84.5215 243.4 151.534Z" stroke="#FFBA49" stroke-width="5"/>
</svg>
